<?xml version="1.0" standalone="no"?>
<!DOCTYPE svg PUBLIC "-//W3C//DTD SVG 20010904//EN"
 "http://www.w3.org/TR/2001/REC-SVG-20010904/DTD/svg10.dtd">
<svg version="1.0" xmlns="http://www.w3.org/2000/svg"
 width="1024.000000pt" height="1024.000000pt" viewBox="0 0 1024.000000 1024.000000"
 preserveAspectRatio="xMidYMid meet">

<g transform="translate(0.000000,1024.000000) scale(0.100000,-0.100000)"
fill="#000000" stroke="none">
<path d="M4969 9081 c-161 -52 -185 -294 -35 -362 133 -60 276 36 276 187 0
46 -46 130 -85 154 -38 23 -116 34 -156 21z m110 -117 c57 -72 -14 -204 -89
-164 -43 23 -55 119 -19 164 15 19 30 26 54 26 24 0 39 -7 54 -26z"/>
<path d="M4702 9036 c-11 -14 -23 -43 -27 -63 -16 -88 -50 -98 -91 -25 -38 66
-54 82 -80 82 -56 0 -87 -37 -55 -67 10 -10 49 -76 86 -148 62 -122 66 -133
60 -178 -7 -55 5 -77 39 -77 41 0 63 39 86 145 54 255 64 317 53 333 -16 27
-48 26 -71 -2z"/>
<path d="M5310 9040 c-27 -51 -42 -288 -20 -315 15 -18 54 -20 68 -2 6 7 17
54 26 106 9 56 22 101 32 112 20 23 67 25 84 4 13 -16 15 -79 5 -157 -8 -56 0
-84 26 -99 29 -15 66 12 78 58 5 21 13 75 17 119 6 73 4 86 -16 121 -34 62
-59 71 -183 71 -92 0 -109 -3 -117 -18z"/>
<path d="M4295 9003 c-98 -29 -100 -31 -98 -104 1 -75 38 -226 60 -251 21 -23
46 -23 68 2 14 16 16 29 11 67 -4 27 -10 72 -13 102 l-6 54 47 42 c49 46 58
78 27 95 -24 12 -33 12 -96 -7z"/>
<path d="M5795 8981 c-70 -43 -105 -108 -105 -194 0 -71 28 -113 99 -149 55
-28 122 -36 149 -19 24 15 10 55 -23 64 -64 19 -96 40 -93 61 3 19 9 21 78 18
105 -4 117 1 130 48 19 69 -7 125 -75 165 -51 31 -117 33 -160 6z m110 -101
c0 -34 -50 -42 -60 -11 -9 29 3 43 33 39 21 -2 27 -8 27 -28z"/>
<path d="M3941 8920 c-114 -27 -165 -154 -107 -268 47 -93 107 -121 204 -96
79 21 118 54 100 87 -8 15 -16 18 -41 12 -81 -17 -117 -17 -123 -2 -10 27 15
56 59 68 95 25 116 92 48 160 -21 22 -48 39 -59 39 -11 0 -26 2 -34 4 -7 2
-28 0 -47 -4z m46 -106 c8 -20 -21 -49 -41 -41 -20 8 -20 21 0 41 20 20 33 20
41 0z"/>
<path d="M3654 8806 c-16 -12 -19 -25 -16 -86 3 -80 -3 -110 -22 -110 -7 0
-36 24 -65 54 -28 30 -61 58 -72 61 -24 8 -59 -19 -59 -46 0 -17 121 -166 181
-221 33 -31 66 -35 108 -13 47 24 52 58 35 207 -8 73 -20 140 -25 150 -12 22
-38 23 -65 4z"/>
<path d="M3165 8730 c-75 -42 -105 -71 -105 -101 0 -25 57 -138 127 -253 72
-117 80 -126 115 -126 27 0 151 63 191 98 40 35 2 83 -51 64 -15 -6 -43 -17
-64 -26 -34 -15 -37 -14 -62 5 -40 31 -35 70 14 109 65 52 48 110 -24 80 -52
-22 -88 -18 -102 9 -16 32 -4 54 46 86 48 30 66 60 49 81 -19 23 -60 15 -134
-26z"/>
<path d="M6908 8703 c-13 -15 -136 -224 -184 -313 -32 -59 -17 -84 91 -145 84
-47 115 -54 134 -31 18 21 0 49 -54 86 -56 38 -67 71 -34 106 25 27 64 31 93
9 41 -31 95 -8 81 34 -3 10 -21 31 -40 46 -39 29 -47 72 -19 96 13 11 23 10
63 -5 63 -25 114 -27 119 -3 5 26 -19 50 -98 97 -75 44 -126 52 -152 23z"/>
<path d="M7140 8430 c-11 -11 -20 -27 -20 -35 0 -9 -16 -64 -35 -124 -19 -59
-35 -118 -35 -130 0 -50 64 -100 112 -87 13 3 75 43 138 89 100 72 115 87 115
111 0 57 -53 60 -120 6 -44 -35 -82 -47 -98 -31 -8 8 -5 27 11 73 28 79 29
124 3 138 -29 15 -49 12 -71 -10z"/>
<path d="M7432 8149 c-53 -26 -109 -91 -123 -141 -15 -57 2 -105 58 -160 56
-55 95 -73 124 -58 31 17 22 46 -25 85 -62 50 -70 86 -24 101 15 4 32 -5 67
-40 54 -53 94 -61 128 -23 71 77 53 165 -44 227 -56 36 -101 38 -161 9z m126
-107 c3 -19 -1 -23 -15 -20 -10 2 -19 14 -21 26 -3 19 1 23 15 20 10 -2 19
-14 21 -26z"/>
<path d="M2361 7969 c-44 -27 -67 -54 -92 -106 -30 -65 -14 -111 66 -190 71
-70 94 -79 156 -63 61 17 159 113 159 157 0 17 -7 36 -15 43 -22 18 -60 -3
-76 -42 -15 -38 -62 -63 -89 -48 -34 18 -21 50 41 110 60 57 49 100 -38 144
-43 21 -71 20 -112 -5z m55 -104 c7 -18 -13 -45 -33 -45 -17 0 -27 24 -19 45
7 20 45 19 52 0z"/>
<path d="M7670 7826 c-118 -108 -127 -119 -111 -152 18 -41 58 -32 131 31 74
63 101 73 144 55 73 -30 105 -23 106 22 0 27 -115 138 -143 138 -16 0 -57 -31
-127 -94z"/>
<path d="M5071 7774 c-12 -15 -21 -31 -21 -36 0 -13 31 -22 39 -11 10 17 52
35 66 29 7 -2 15 -17 17 -32 4 -33 32 -54 49 -37 19 19 1 61 -38 88 -49 33
-86 32 -112 -1z"/>
<path d="M2070 7711 c-59 -5 -65 -8 -74 -33 -7 -21 -4 -38 20 -85 28 -56 30
-58 77 -65 33 -4 69 -21 115 -52 82 -55 110 -63 151 -42 46 24 67 61 52 92
-10 23 -14 24 -60 18 -41 -5 -56 -3 -85 16 -47 28 -66 57 -66 96 0 18 -3 39
-6 48 -6 17 -10 17 -124 7z"/>
<path d="M7914 7663 c-119 -190 -144 -219 -209 -250 -30 -13 -41 -25 -43 -45
-3 -27 27 -58 58 -58 24 0 392 120 418 136 13 8 22 24 22 38 0 36 -41 47 -113
29 -97 -25 -108 -3 -47 94 35 54 37 74 12 96 -35 32 -60 21 -98 -40z"/>
<path d="M5035 7622 c13 -54 58 -70 47 -17 -4 26 -16 38 -40 41 -10 2 -12 -5
-7 -24z"/>
<path d="M5171 7584 c-7 -8 -10 -18 -7 -21 7 -7 36 16 36 28 0 13 -13 10 -29
-7z"/>
<path d="M4680 7518 c0 -14 39 -43 47 -34 7 7 -6 25 -28 36 -14 8 -19 7 -19
-2z"/>
<path d="M1940 7448 c-72 -49 -125 -174 -88 -206 20 -16 54 9 72 53 15 34 49
60 66 50 15 -9 12 -50 -5 -92 -21 -49 -19 -68 12 -124 l26 -49 -23 -53 c-13
-28 -32 -61 -42 -71 -36 -41 -125 -15 -155 44 -9 19 -9 31 4 59 26 61 26 69 3
81 -33 18 -80 -15 -104 -72 -27 -65 -16 -112 38 -163 56 -55 110 -79 173 -79
46 0 57 4 87 33 18 18 42 50 51 72 16 34 16 45 6 80 -7 23 -10 43 -7 47 3 3
29 17 58 31 47 24 55 33 100 119 38 74 46 97 38 112 -13 25 -206 141 -245 147
-21 3 -40 -2 -65 -19z m198 -199 c4 -31 -18 -52 -50 -47 -17 2 -24 11 -26 32
-4 33 12 47 48 44 19 -2 26 -10 28 -29z"/>
<path d="M5468 7459 c-24 -14 -23 -36 3 -44 25 -8 25 -7 34 28 8 29 -5 35 -37
16z"/>
<path d="M5402 7390 c-15 -25 -8 -40 19 -40 14 0 19 7 19 30 0 35 -19 40 -38
10z"/>
<path d="M8083 7296 c-93 -93 -113 -119 -113 -143 0 -45 40 -77 98 -79 86 -2
88 -5 42 -73 -17 -24 -30 -53 -30 -63 0 -30 45 -68 80 -68 33 0 214 35 267 51
40 13 51 43 27 70 -16 18 -26 19 -96 13 -75 -6 -78 -6 -78 15 0 12 20 43 45
69 49 51 53 66 29 100 -17 25 -51 28 -120 11 -34 -9 -48 -9 -59 1 -19 16 -6
41 47 92 21 21 38 46 38 56 0 25 -28 62 -48 62 -9 0 -67 -51 -129 -114z"/>
<path d="M4850 7326 c0 -8 3 -22 6 -31 5 -13 8 -14 15 -3 14 21 10 48 -6 48
-8 0 -15 -6 -15 -14z"/>
<path d="M5364 7263 c-3 -16 -7 -33 -9 -40 -2 -7 2 -10 11 -6 8 3 14 19 14 39
0 41 -7 44 -16 7z"/>
<path d="M4907 7230 c3 -11 9 -17 15 -14 5 3 4 12 -3 20 -16 19 -18 18 -12 -6z"/>
<path d="M5012 7223 c2 -9 11 -17 21 -19 18 -2 18 -2 1 17 -21 23 -26 24 -22
2z"/>
<path d="M5580 7093 c-6 -21 -18 -52 -26 -70 -17 -37 -9 -70 12 -52 8 6 14 19
14 28 0 9 7 34 15 56 8 22 14 48 15 58 0 31 -18 18 -30 -20z"/>
<path d="M4661 7050 c-1 -29 15 -58 25 -47 4 4 0 22 -9 40 -15 30 -16 31 -16
7z"/>
<path d="M4251 6999 c-18 -7 -22 -12 -13 -21 9 -9 18 -8 37 2 21 11 30 12 45
2 24 -15 60 -16 60 -2 0 6 -6 10 -12 9 -24 -3 -39 1 -35 9 7 10 -54 11 -82 1z"/>
<path d="M5197 6973 c3 -7 9 -13 14 -13 5 0 9 6 9 13 0 8 -6 14 -14 14 -8 0
-12 -6 -9 -14z"/>
<path d="M5926 6981 c-7 -10 16 -21 43 -21 9 0 32 -14 49 -31 27 -27 33 -29
38 -14 11 28 -43 75 -87 75 -21 0 -40 -4 -43 -9z"/>
<path d="M4696 6908 c4 -35 8 -65 10 -67 2 -2 11 2 20 9 29 25 6 119 -29 120
-4 0 -5 -28 -1 -62z"/>
<path d="M5096 6915 c4 -8 10 -15 15 -15 5 0 9 7 9 15 0 8 -7 15 -15 15 -9 0
-12 -6 -9 -15z"/>
<path d="M4413 6909 c-7 -7 -7 -18 1 -35 15 -32 26 -30 26 5 0 33 -11 46 -27
30z"/>
<path d="M4180 6890 c0 -11 7 -20 15 -20 8 0 15 9 15 20 0 11 -7 20 -15 20 -8
0 -15 -9 -15 -20z"/>
<path d="M5520 6870 c0 -5 5 -10 11 -10 5 0 7 -4 4 -10 -3 -5 1 -10 9 -10 9 0
16 9 16 20 0 13 -7 20 -20 20 -11 0 -20 -4 -20 -10z"/>
<path d="M8580 6871 c-8 -5 -91 -34 -185 -66 -93 -31 -178 -64 -187 -73 -21
-18 -23 -53 -6 -70 19 -19 70 -14 142 13 37 14 76 25 87 25 21 0 69 -42 69
-60 0 -24 -51 -60 -116 -80 -92 -28 -114 -43 -114 -80 0 -46 34 -58 107 -36
119 35 196 81 220 131 15 32 15 37 -5 95 -20 61 -20 62 -1 81 10 10 24 19 30
19 6 0 24 9 40 21 30 21 38 56 17 77 -14 14 -76 16 -98 3z"/>
<path d="M5834 6839 c2 -19 -1 -39 -6 -46 -6 -8 -1 -19 16 -34 14 -13 26 -29
26 -36 0 -19 66 -16 101 4 52 31 35 36 -56 18 -10 -2 -28 3 -38 13 -11 9 -21
16 -23 15 -12 -8 -13 -1 -4 17 8 14 8 20 0 20 -6 0 -9 8 -6 18 3 9 2 23 -3 31
-6 9 -8 2 -7 -20z"/>
<path d="M5861 6854 c0 -11 3 -14 6 -6 3 7 2 16 -1 19 -3 4 -6 -2 -5 -13z"/>
<path d="M5152 6848 c-7 -7 -12 -19 -12 -27 0 -11 5 -8 16 7 18 25 15 39 -4
20z"/>
<path d="M6033 6831 c-7 -19 -7 -31 -2 -31 6 0 7 -4 4 -10 -3 -5 -2 -10 3 -10
14 0 19 21 13 54 l-6 28 -12 -31z"/>
<path d="M4220 6806 c0 -32 31 -57 90 -72 62 -16 96 -6 110 32 13 34 7 40 -22
20 -23 -16 -113 -23 -104 -8 3 5 -13 18 -34 30 l-40 21 0 -23z"/>
<path d="M4756 6815 c-11 -30 -6 -62 12 -85 18 -22 18 -22 17 29 -1 54 -17 85
-29 56z"/>
<path d="M1602 6808 c-16 -16 -15 -53 2 -71 8 -7 48 -26 89 -41 92 -33 125
-64 111 -104 -8 -23 -15 -27 -55 -30 -29 -2 -65 5 -98 18 -90 35 -151 21 -138
-32 4 -13 21 -31 39 -40 43 -23 194 -68 227 -68 64 0 121 68 121 143 0 18 7
42 15 53 23 30 19 79 -7 96 -31 19 -243 88 -271 88 -13 0 -28 -5 -35 -12z"/>
<path d="M5524 6808 c-6 -7 -15 -25 -21 -40 -10 -22 -9 -29 7 -43 18 -16 19
-15 29 20 11 42 1 85 -15 63z"/>
<path d="M6347 6692 c-61 -55 -117 -95 -157 -113 l-35 -15 29 -19 29 -19 23
27 c13 15 27 27 31 27 13 0 118 102 132 128 18 34 -3 27 -52 -16z"/>
<path d="M3860 6695 c0 -17 49 -65 67 -65 7 0 13 -8 13 -18 0 -25 35 -56 55
-49 18 8 20 32 3 46 -7 6 -37 31 -66 56 -55 47 -72 54 -72 30z"/>
<path d="M4800 6618 c0 -35 5 -60 14 -67 12 -10 14 -5 11 26 -6 89 -25 120
-25 41z"/>
<path d="M4060 6561 c-8 -6 -18 -7 -22 -5 -13 8 -9 -21 5 -40 12 -17 18 -17
50 -7 41 14 43 18 23 44 -15 19 -33 22 -56 8z"/>
<path d="M6086 6515 c-12 -9 -17 -22 -13 -34 3 -11 0 -22 -6 -24 -22 -7 1 -35
26 -30 30 6 53 44 42 70 -5 10 -7 21 -7 26 3 12 -22 7 -42 -8z"/>
<path d="M5421 6504 c0 -11 3 -14 6 -6 3 7 2 16 -1 19 -3 4 -6 -2 -5 -13z"/>
<path d="M4295 6460 c-4 -6 -5 -12 -4 -13 2 -1 14 -8 27 -15 19 -10 26 -10 43
2 23 16 18 21 -28 30 -19 5 -34 3 -38 -4z"/>
<path d="M5411 6436 c-8 -10 -9 -21 0 -42 l11 -29 12 35 c17 48 4 68 -23 36z"/>
<path d="M4836 6414 c-18 -13 -19 -17 -7 -50 7 -20 13 -54 13 -75 -1 -40 3
-45 27 -30 12 8 12 19 3 68 -7 32 -13 68 -14 80 -3 20 -5 20 -22 7z"/>
<path d="M1313 6409 c-31 -31 -7 -66 64 -94 48 -19 57 -37 45 -91 -25 -114 77
-201 227 -192 64 3 74 7 106 38 37 35 40 48 49 166 9 106 6 107 -189 144 -205
38 -286 46 -302 29z m366 -163 c31 -28 33 -55 5 -83 -22 -22 -32 -25 -72 -20
-34 4 -53 12 -69 32 -29 33 -29 49 0 75 18 18 31 21 70 17 26 -2 56 -12 66
-21z"/>
<path d="M4215 6390 c-3 -6 1 -13 10 -16 19 -8 30 0 20 15 -8 14 -22 14 -30 1z"/>
<path d="M8411 6378 c-52 -28 -91 -91 -91 -147 1 -89 58 -175 103 -158 22 8
23 69 1 102 -18 28 -11 60 15 75 28 15 52 -10 58 -60 8 -62 28 -98 59 -106 58
-15 141 59 151 134 6 46 -19 102 -67 147 -28 27 -39 30 -108 33 -66 3 -83 0
-121 -20z m196 -142 c-4 -9 -13 -16 -21 -16 -19 0 -29 30 -15 47 11 12 14 12
27 -1 8 -8 12 -22 9 -30z"/>
<path d="M4326 6333 c-2 -3 -2 -11 1 -19 5 -15 39 -19 47 -6 5 8 -40 32 -48
25z"/>
<path d="M5846 6295 c-3 -9 -10 -14 -14 -11 -5 3 -17 -1 -28 -8 -17 -13 -17
-14 6 -12 24 1 58 32 47 42 -2 3 -7 -2 -11 -11z"/>
<path d="M5873 6295 c0 -8 4 -12 9 -9 5 3 6 10 3 15 -9 13 -12 11 -12 -6z"/>
<path d="M4540 6192 c0 -5 7 -13 16 -16 10 -4 14 -1 12 6 -5 15 -28 23 -28 10z"/>
<path d="M5650 6180 c0 -5 5 -10 10 -10 6 0 10 5 10 10 0 6 -4 10 -10 10 -5 0
-10 -4 -10 -10z"/>
<path d="M4853 6130 c1 -22 27 -47 27 -26 0 8 3 21 6 30 4 10 0 14 -14 13 -12
-1 -20 -8 -19 -17z"/>
<path d="M5075 6068 c-2 -7 -4 -24 -3 -38 0 -14 -7 -58 -16 -98 -9 -40 -16
-86 -16 -102 0 -29 22 -46 43 -33 6 4 24 6 39 5 17 -1 31 4 37 15 5 10 13 15
17 11 3 -4 19 -1 34 7 15 8 30 12 33 9 3 -3 10 3 16 14 8 16 6 25 -15 48 -14
16 -34 45 -44 65 -19 37 -92 109 -110 109 -6 0 -13 -6 -15 -12z m115 -224 c0
-8 -5 -12 -10 -9 -6 4 -8 11 -5 16 9 14 15 11 15 -7z"/>
<path d="M4839 5993 c-15 -47 -15 -83 2 -93 19 -12 28 -3 27 28 0 15 3 41 6
58 9 48 -19 54 -35 7z"/>
<path d="M8545 5999 c-60 -5 -120 -13 -132 -19 -31 -13 -40 -55 -17 -81 16
-18 26 -19 101 -13 96 8 128 -2 158 -46 24 -37 61 -49 82 -28 19 20 8 140 -16
168 -22 26 -48 29 -176 19z"/>
<path d="M1265 5950 c-23 -44 -21 -191 3 -220 21 -26 104 -37 309 -42 112 -3
135 -1 149 14 22 22 42 188 26 223 -24 53 -82 18 -82 -49 0 -36 -37 -76 -70
-76 -36 0 -60 32 -60 81 0 24 -7 42 -21 55 -29 26 -50 9 -72 -59 -15 -46 -23
-58 -44 -63 -37 -10 -63 25 -63 83 0 24 -5 53 -10 64 -16 28 -47 24 -65 -11z"/>
<path d="M4813 5758 c-6 -7 -12 -27 -15 -44 -4 -27 -1 -30 18 -26 26 5 39 50
20 70 -10 11 -15 11 -23 0z"/>
<path d="M8516 5740 c-28 -5 -52 -20 -82 -52 -36 -38 -43 -53 -49 -101 -9 -67
10 -140 38 -145 32 -6 47 17 47 73 0 67 25 104 58 86 19 -10 22 -20 22 -81 0
-57 4 -74 20 -90 38 -38 113 -20 164 40 36 43 38 140 3 191 -30 45 -83 79
-123 79 -18 0 -38 2 -46 4 -7 2 -31 0 -52 -4z m149 -170 c0 -16 -6 -26 -18
-28 -19 -4 -32 20 -23 44 9 25 41 13 41 -16z"/>
<path d="M5561 5714 c0 -11 3 -14 6 -6 3 7 2 16 -1 19 -3 4 -6 -2 -5 -13z"/>
<path d="M5492 5590 c0 -14 2 -19 5 -12 2 6 2 18 0 25 -3 6 -5 1 -5 -13z"/>
<path d="M4572 5525 c-16 -34 -15 -45 2 -45 15 0 26 21 26 51 0 27 -15 24 -28
-6z"/>
<path d="M5499 5353 c-6 -37 12 -83 32 -83 12 0 1 64 -12 68 -5 2 -7 8 -3 13
3 5 0 9 -5 9 -6 0 -11 -3 -12 -7z"/>
<path d="M4498 5276 c-29 -28 -21 -47 10 -27 8 5 12 17 10 26 -3 18 -4 18 -20
1z"/>
<path d="M5766 5225 c4 -8 11 -15 16 -15 6 0 5 6 -2 15 -7 8 -14 15 -16 15 -2
0 -1 -7 2 -15z"/>
<path d="M5645 5210 c-3 -5 -1 -10 4 -10 6 0 11 5 11 10 0 6 -2 10 -4 10 -3 0
-8 -4 -11 -10z"/>
<path d="M4431 5187 c-16 -16 -14 -36 4 -33 9 1 15 6 14 11 0 4 5 11 11 15 8
5 8 9 -3 13 -8 3 -20 0 -26 -6z"/>
<path d="M5571 5167 c-9 -11 -7 -20 8 -38 17 -21 20 -22 26 -7 15 39 -10 73
-34 45z"/>
<path d="M4357 5101 c-37 -24 -72 -76 -92 -138 -9 -28 -27 -61 -41 -73 -27
-27 -23 -43 11 -34 44 11 93 -24 146 -102 44 -66 69 -89 69 -66 0 4 -7 53 -17
109 -24 143 -10 154 147 113 41 -11 120 -23 175 -26 112 -7 193 8 278 51 62
32 103 32 164 0 113 -59 292 -69 453 -25 41 11 89 20 106 20 50 0 57 -17 49
-120 -5 -57 -4 -90 3 -90 5 0 28 24 51 53 50 65 79 82 143 82 28 0 48 5 48 11
0 13 -28 39 -51 47 -9 3 -19 20 -23 38 -11 56 -46 118 -82 145 l-34 26 -49
-21 c-28 -11 -61 -21 -75 -21 -14 0 -37 -5 -51 -12 -21 -9 -31 -9 -48 1 -19
12 -24 10 -56 -27 -20 -22 -46 -45 -59 -52 -44 -22 -227 12 -322 60 -33 16
-71 30 -85 30 -14 0 -52 -14 -85 -30 -86 -44 -192 -65 -299 -61 -14 1 -39 17
-59 38 -33 36 -38 37 -101 38 -53 0 -78 6 -120 28 -63 32 -59 32 -94 8z"/>
<path d="M4593 4333 c-7 -2 -17 -21 -23 -42 -15 -57 -53 -51 -85 12 -25 50
-63 22 -68 -49 l-2 -37 70 0 c79 0 167 34 173 66 7 34 -32 64 -65 50z"/>
<path d="M5500 4321 c-15 -29 -12 -56 8 -74 25 -23 39 -21 47 4 10 29 -2 67
-25 79 -15 8 -21 6 -30 -9z"/>
<path d="M4947 4308 c-5 -15 20 -68 32 -68 12 0 34 57 26 69 -9 15 -52 14 -58
-1z"/>
<path d="M5654 4305 c-7 -18 3 -35 22 -35 20 0 30 30 13 41 -20 12 -29 11 -35
-6z"/>
<path d="M5816 4304 c-3 -9 -6 -31 -6 -50 0 -27 5 -37 25 -46 33 -15 58 4 45
35 -5 12 -11 34 -14 50 -7 30 -40 38 -50 11z"/>
<path d="M4727 4304 c-11 -11 -8 -52 4 -60 14 -8 30 15 27 40 -3 21 -20 31
-31 20z"/>
<path d="M4796 4293 c-4 -9 0 -23 8 -31 12 -13 18 -13 30 -2 9 7 16 21 16 31
0 24 -45 26 -54 2z"/>
<path d="M5225 4300 c-8 -14 3 -30 21 -30 8 0 14 9 14 20 0 21 -24 28 -35 10z"/>
<path d="M4968 3430 c-54 -16 -97 -51 -118 -95 -21 -43 -21 -53 -18 -392 4
-332 5 -351 27 -408 13 -33 31 -74 42 -92 29 -47 95 -103 153 -127 94 -42 135
-48 287 -44 121 3 153 7 201 26 110 44 183 120 229 241 21 53 22 77 26 392 3
227 1 348 -6 376 -25 92 -125 132 -202 80 -58 -39 -59 -42 -59 -388 0 -337 -4
-375 -50 -439 -28 -40 -111 -80 -166 -80 -64 0 -139 43 -172 98 l-27 47 -5
365 c-6 408 -5 407 -75 436 -19 8 -36 14 -37 13 -2 0 -15 -4 -30 -9z"/>
<path d="M697 3389 c-52 -27 -81 -80 -162 -294 -24 -63 -94 -235 -145 -355
-119 -282 -140 -351 -119 -395 36 -74 147 -100 209 -49 34 29 61 76 80 141 7
23 24 53 37 65 23 22 34 23 189 26 138 3 169 1 190 -13 14 -9 42 -55 68 -110
34 -72 52 -99 78 -115 71 -43 168 -13 196 62 13 33 13 44 -3 90 -25 78 -313
795 -342 852 -20 40 -61 84 -95 102 -40 21 -135 17 -181 -7z m145 -466 c15
-37 35 -94 44 -126 16 -51 16 -60 4 -68 -24 -15 -173 -11 -196 5 -19 14 -19
16 -1 63 10 26 27 77 38 113 39 121 69 124 111 13z"/>
<path d="M2704 3377 l-39 -35 0 -501 0 -501 31 -31 c57 -57 162 -49 204 14 11
16 16 68 20 204 4 157 7 185 23 200 15 16 41 18 187 21 l170 3 25 -25 c25 -25
25 -28 26 -183 0 -95 5 -172 12 -193 25 -73 121 -102 188 -57 61 41 59 26 57
559 l-3 488 -32 31 c-63 63 -175 44 -209 -36 -10 -25 -14 -76 -14 -185 0 -202
13 -190 -209 -190 -229 0 -214 -14 -221 209 l-5 171 -32 31 c-26 26 -42 33
-86 37 -52 4 -57 2 -93 -31z"/>
<path d="M3822 3394 c-35 -24 -55 -72 -49 -117 6 -42 33 -89 167 -292 47 -71
100 -155 118 -186 l32 -56 1 -179 c0 -111 5 -192 12 -214 31 -90 162 -107 232
-30 18 20 20 40 25 229 4 182 7 209 24 236 11 17 75 114 143 216 127 192 162
257 163 297 1 87 -116 142 -196 93 -17 -11 -46 -45 -64 -78 -76 -133 -154
-259 -173 -275 -30 -27 -51 -22 -76 20 -12 20 -56 93 -96 162 -83 140 -90 149
-125 173 -31 21 -108 22 -138 1z"/>
<path d="M7420 3388 c-46 -31 -79 -91 -154 -281 -36 -89 -79 -196 -97 -237
-33 -78 -57 -140 -89 -225 -10 -27 -35 -88 -54 -135 -46 -111 -47 -149 -2
-198 33 -35 37 -37 99 -37 78 0 101 17 137 98 57 128 63 139 87 148 27 10 305
12 341 3 17 -5 36 -33 72 -103 26 -53 60 -107 74 -120 53 -49 172 -33 204 29
30 59 -2 159 -228 700 -29 69 -65 155 -80 191 -62 147 -110 189 -218 189 -45
0 -67 -5 -92 -22z m117 -410 c11 -13 38 -70 58 -127 37 -100 38 -104 20 -117
-26 -19 -165 -19 -191 0 -19 14 -18 17 20 128 52 149 57 155 93 116z"/>
<path d="M8085 3394 c-34 -17 -47 -36 -56 -77 -14 -59 11 -107 214 -413 l107
-161 0 -189 c0 -209 4 -224 60 -262 29 -19 44 -23 84 -19 41 4 55 11 83 41
l33 36 0 187 c0 161 3 194 19 228 10 22 77 128 148 235 195 292 200 305 134
371 -35 35 -44 39 -89 39 -74 0 -104 -31 -207 -213 -48 -84 -92 -158 -100
-166 -20 -20 -59 -6 -74 26 -34 77 -204 326 -232 340 -33 17 -88 16 -124 -3z"/>
<path d="M9313 3390 c-45 -27 -87 -88 -119 -173 -46 -122 -193 -497 -230 -587
-69 -167 -87 -225 -80 -262 15 -82 125 -125 200 -79 35 22 69 80 95 162 22 69
34 74 211 77 209 4 215 2 260 -108 43 -103 90 -150 151 -150 45 0 84 17 114
50 31 34 24 108 -20 215 -21 50 -46 113 -56 140 -10 28 -38 100 -64 160 -25
61 -62 151 -81 200 -86 221 -116 284 -152 320 -46 46 -68 55 -140 55 -39 0
-67 -6 -89 -20z m103 -388 c16 -10 44 -67 61 -126 8 -28 18 -55 23 -61 15 -21
21 -67 9 -81 -18 -21 -182 -20 -204 2 -9 9 -13 24 -10 33 4 9 22 61 41 116 19
55 36 106 39 113 5 13 24 16 41 4z"/>
<path d="M6108 3378 c-57 -10 -95 -54 -103 -123 -3 -27 -5 -239 -3 -470 3
-417 3 -420 26 -457 13 -21 36 -41 54 -47 19 -7 125 -11 274 -11 273 0 310 7
406 77 144 104 198 235 198 476 0 217 -31 313 -135 426 -61 66 -148 116 -218
126 -63 9 -449 11 -499 3z m429 -238 c72 -25 96 -52 136 -153 22 -55 27 -83
27 -155 0 -104 -35 -225 -81 -277 -41 -46 -130 -75 -229 -75 -121 0 -115 -19
-115 347 l0 305 25 20 c22 18 35 20 100 15 41 -3 103 -15 137 -27z"/>
<path d="M1572 3364 c-12 -8 -30 -30 -40 -47 -15 -29 -17 -72 -16 -493 2 -511
1 -506 68 -538 29 -14 75 -16 312 -16 273 0 280 0 344 25 87 33 132 72 169
147 27 54 31 71 31 147 0 102 -17 143 -86 207 -49 46 -56 77 -25 111 43 46 61
99 61 182 0 125 -49 209 -153 261 l-60 30 -291 0 c-248 0 -295 -2 -314 -16z
m473 -192 c41 -14 53 -24 69 -55 21 -44 16 -91 -14 -130 -28 -36 -100 -57
-192 -57 -70 0 -82 3 -103 25 -23 22 -25 32 -25 110 0 116 9 125 128 125 55
-1 105 -7 137 -18z m23 -444 c52 -17 68 -28 88 -59 46 -74 19 -144 -76 -192
-51 -26 -62 -28 -157 -25 -135 4 -137 6 -141 143 -4 100 -3 105 22 130 23 23
32 25 112 25 63 0 105 -6 152 -22z"/>
<path d="M1312 1798 c-13 -7 -26 -26 -33 -51 -14 -54 -8 -252 9 -269 18 -18
45 1 53 38 10 53 27 74 60 74 18 0 37 -8 49 -22 63 -74 101 -109 112 -106 21
7 21 46 -1 77 -41 57 -42 72 -5 114 20 21 34 48 34 63 0 32 -41 71 -89 84 -47
13 -160 12 -189 -2z m172 -50 c32 -45 9 -88 -47 -88 -42 0 -77 25 -77 55 0 51
94 76 124 33z"/>
<path d="M6615 1790 c-18 -20 -20 -36 -20 -165 0 -129 2 -145 20 -165 18 -20
28 -22 95 -18 62 3 82 8 116 31 85 57 106 172 48 260 -31 48 -76 67 -168 74
-64 5 -73 3 -91 -17z m175 -48 c56 -56 63 -145 17 -213 -19 -28 -30 -35 -64
-37 -53 -4 -64 15 -69 111 -8 147 45 210 116 139z"/>
<path d="M4640 1778 c-47 -24 -58 -46 -45 -95 4 -16 18 -29 43 -39 126 -51
146 -72 120 -128 -15 -34 -60 -35 -104 -1 -36 28 -64 32 -64 11 0 -20 19 -38
72 -66 41 -21 50 -23 84 -12 22 6 59 30 84 52 25 22 51 40 58 40 7 0 21 -13
30 -29 22 -39 94 -75 133 -67 40 8 97 54 119 97 18 35 18 36 -3 74 -25 43 -88
85 -127 84 -47 -1 -95 -25 -118 -60 -36 -52 -48 -55 -95 -22 -23 16 -64 37
-90 47 -54 20 -79 55 -60 84 14 23 60 18 88 -8 19 -17 24 -18 34 -7 14 18 5
44 -20 57 -30 17 -93 11 -139 -12z m451 -149 c42 -42 6 -139 -51 -139 -46 0
-80 59 -66 115 11 45 82 59 117 24z"/>
<path d="M5974 1786 c-20 -15 -33 -100 -33 -222 -1 -58 3 -74 19 -89 25 -23
65 -13 74 17 9 36 7 244 -3 271 -12 31 -34 39 -57 23z"/>
<path d="M2530 1771 c-5 -11 -14 -77 -19 -148 -9 -123 -9 -129 11 -145 24 -21
51 -23 66 -5 5 6 12 45 14 84 3 40 11 79 17 87 9 11 7 29 -9 80 -19 57 -25 66
-46 66 -13 0 -28 -9 -34 -19z"/>
<path d="M3699 1774 c-11 -13 -13 -47 -12 -143 l3 -126 35 -32 c36 -34 50 -39
74 -24 11 7 11 16 -4 54 -12 33 -15 59 -10 94 3 26 7 67 8 90 3 72 -59 129
-94 87z"/>
<path d="M3891 1759 c-6 -18 -11 -83 -11 -144 0 -97 3 -116 19 -136 31 -37 54
-16 64 57 13 98 19 109 52 109 36 0 55 -31 55 -93 0 -74 28 -102 63 -64 21 23
23 102 3 140 -25 48 -50 64 -97 60 -43 -3 -44 -3 -69 47 -31 63 -62 72 -79 24z"/>
<path d="M6101 1771 c-6 -11 -11 -77 -11 -150 0 -104 3 -133 16 -145 35 -36
60 -10 70 71 9 83 13 93 34 93 13 0 24 -10 30 -27 6 -16 17 -40 25 -55 9 -15
16 -52 17 -83 1 -44 -3 -60 -20 -78 -46 -49 -7 -66 48 -21 39 34 55 64 70 139
6 33 18 70 27 83 8 13 12 31 10 40 -3 13 -8 9 -23 -17 -39 -68 -49 -77 -79
-66 -21 8 -31 21 -41 55 -11 38 -19 47 -46 55 -27 8 -36 19 -53 65 -23 61 -55
78 -74 41z"/>
<path d="M8685 1773 c-9 -10 -26 -34 -39 -53 -20 -32 -26 -35 -62 -32 -28 2
-52 -3 -78 -19 -40 -23 -38 -23 -152 14 -41 13 -92 2 -129 -27 -27 -22 -30
-30 -29 -79 0 -66 7 -75 79 -112 45 -22 61 -26 86 -19 44 13 36 28 -17 34 -53
6 -67 23 -33 40 35 19 146 -4 206 -44 33 -22 49 -27 70 -21 28 7 28 7 8 23
-54 44 -70 106 -39 150 32 46 104 16 104 -44 0 -12 -7 -41 -15 -65 -17 -48
-11 -59 36 -59 49 0 64 31 67 142 5 120 -2 164 -28 178 -15 8 -23 6 -35 -7z
m-325 -149 c0 -16 -45 -20 -55 -5 -7 12 25 30 42 24 7 -3 13 -11 13 -19z"/>
<path d="M2038 1683 c-16 -15 -15 -17 6 -34 15 -12 25 -33 29 -58 12 -94 70
-152 104 -105 19 26 16 109 -6 152 -29 57 -98 81 -133 45z"/>
<path d="M2680 1685 c-11 -13 -9 -20 9 -38 16 -18 21 -37 22 -78 1 -75 11
-103 36 -107 31 -5 63 42 63 93 0 49 -45 120 -86 135 -32 12 -29 13 -44 -5z"/>
<path d="M3127 1694 c-3 -3 -36 -10 -73 -14 -46 -6 -72 -14 -81 -26 -17 -23
-17 -135 0 -156 38 -47 77 -17 77 59 0 35 6 58 19 74 18 22 21 23 36 8 11 -11
19 -40 22 -85 3 -38 10 -75 16 -81 15 -20 55 -15 67 6 15 29 12 128 -5 161
-15 29 -67 65 -78 54z"/>
<path d="M4285 1681 c-64 -30 -85 -55 -85 -104 0 -48 8 -61 62 -100 45 -33 88
-43 117 -28 33 18 25 31 -18 31 -45 0 -59 13 -40 37 10 11 25 14 56 10 40 -4
45 -2 58 24 20 38 19 83 -2 100 -19 16 -89 49 -101 49 -4 0 -25 -9 -47 -19z
m95 -60 c0 -13 -27 -21 -45 -15 -18 7 -20 31 -2 37 14 5 47 -10 47 -22z"/>
<path d="M5750 1682 l-22 -18 26 -18 c20 -13 26 -24 24 -44 -2 -22 -9 -28 -38
-32 -51 -9 -60 -17 -60 -55 0 -38 20 -55 66 -55 21 0 25 4 21 19 -2 10 0 26 5
36 9 15 14 14 44 -16 28 -27 38 -31 51 -23 23 15 34 61 27 114 -9 59 -19 77
-54 95 -38 20 -63 19 -90 -3z"/>
<path d="M1724 1676 c-39 -17 -74 -66 -74 -103 0 -34 22 -64 73 -97 44 -30
117 -37 117 -11 0 10 -10 15 -34 15 -19 0 -38 5 -42 12 -10 16 25 38 62 38 23
0 38 7 48 22 58 83 -46 169 -150 124z m78 -58 c-12 -12 -35 -1 -27 12 3 5 13
6 21 3 10 -4 12 -9 6 -15z"/>
<path d="M2314 1680 c-11 -4 -33 -22 -47 -40 -38 -45 -36 -89 5 -136 56 -64
130 -78 163 -31 20 29 6 39 -33 25 -28 -11 -34 -10 -57 12 -18 17 -25 34 -25
62 0 51 27 78 80 78 22 0 40 4 40 10 0 26 -80 39 -126 20z"/>
<path d="M3342 1672 c-12 -12 -26 -39 -33 -62 -11 -37 -10 -46 11 -93 13 -29
24 -65 25 -82 1 -16 3 -36 3 -42 3 -17 56 -43 89 -43 42 0 92 36 109 77 12 27
15 63 12 135 -3 111 -8 118 -73 118 -22 0 -59 2 -82 6 -33 5 -45 2 -61 -14z
m130 -57 c17 -62 -11 -135 -46 -122 -24 10 -49 56 -48 90 2 64 78 90 94 32z
m-18 -194 c8 -13 -21 -34 -39 -27 -25 9 -18 36 9 36 14 0 27 -4 30 -9z"/>
<path d="M5310 1678 c-13 -7 -37 -32 -54 -55 -27 -38 -28 -44 -16 -72 14 -35
70 -88 108 -102 33 -13 70 -4 107 26 23 18 27 26 18 36 -9 9 -17 8 -37 -5 -62
-40 -116 -8 -116 70 0 59 25 79 90 71 27 -3 52 -2 55 2 17 29 -110 53 -155 29z"/>
<path d="M5540 1670 c-17 -17 -20 -33 -20 -99 0 -59 4 -84 16 -95 23 -23 51
-19 70 9 23 35 14 173 -12 192 -24 17 -31 16 -54 -7z"/>
<path d="M7025 1667 c-53 -30 -69 -64 -55 -117 11 -40 45 -70 115 -102 29 -13
75 -3 75 17 0 11 -11 15 -39 15 -22 0 -43 5 -47 12 -11 18 28 39 68 36 24 -1
44 4 56 15 40 36 49 24 62 -78 10 -77 23 -115 40 -115 6 0 20 20 32 45 23 46
27 49 90 59 28 5 44 17 67 48 39 52 39 82 2 140 l-29 46 -88 -2 c-78 -2 -89
-4 -102 -24 -19 -28 -40 -28 -93 3 -54 31 -102 31 -154 2z m410 -38 c18 -18
10 -99 -13 -121 -27 -27 -49 -18 -68 28 -16 37 -12 77 9 102 11 14 54 9 72 -9z
m-305 -4 c0 -16 -35 -21 -44 -6 -8 12 4 21 26 21 10 0 18 -7 18 -15z"/>
<path d="M7608 1681 c-27 -7 -38 -36 -38 -97 0 -145 71 -165 83 -24 5 54 10
68 31 85 14 12 26 25 26 31 0 9 -75 13 -102 5z"/>
<path d="M7804 1680 c-21 -8 -22 -13 -17 -97 6 -102 15 -126 46 -121 28 4 47
42 47 95 0 23 5 54 10 69 8 21 8 30 -2 39 -19 18 -59 25 -84 15z"/>
<path d="M2866 1661 c-26 -28 -31 -109 -9 -151 38 -74 73 -39 73 71 0 91 -25
123 -64 80z"/>
<path d="M7940 1603 c16 -32 37 -75 45 -95 25 -67 85 -45 100 37 4 22 11 45
17 52 5 7 8 22 5 35 -4 22 -4 21 -16 -7 -11 -30 -64 -61 -83 -49 -4 3 -17 23
-28 45 -16 30 -26 39 -46 39 l-25 0 31 -57z"/>
<path d="M1968 1559 c-28 -16 -23 -64 8 -88 15 -12 35 -21 45 -21 16 0 18 6
13 48 -3 26 -7 53 -10 60 -4 14 -32 15 -56 1z"/>
<path d="M326 1481 c-4 -7 -5 -15 -2 -18 9 -9 19 4 14 18 -4 11 -6 11 -12 0z"/>
</g>
</svg>
