<?xml version="1.0" standalone="no"?>
<!DOCTYPE svg PUBLIC "-//W3C//DTD SVG 20010904//EN"
 "http://www.w3.org/TR/2001/REC-SVG-20010904/DTD/svg10.dtd">
<svg version="1.0" xmlns="http://www.w3.org/2000/svg"
 width="394.000000pt" height="399.000000pt" viewBox="0 0 394.000000 399.000000"
 preserveAspectRatio="xMidYMid meet">

<g transform="translate(0.000000,399.000000) scale(0.100000,-0.100000)"
fill="#000000" stroke="none">
<path d="M1730 3631 c-167 -37 -353 -120 -464 -208 l-56 -43 2 -832 3 -832 74
-23 c131 -39 262 -56 385 -50 152 8 236 24 236 46 0 9 -10 74 -22 145 -22 123
-24 130 -50 140 -21 8 -48 47 -48 70 0 1 61 1 135 1 83 0 135 -4 135 -10 -1
-33 -15 -54 -40 -60 -27 -6 -28 -10 -55 -146 -15 -77 -25 -142 -22 -145 2 -3
87 11 188 31 221 45 336 53 434 32 39 -8 78 -18 88 -22 16 -7 17 37 17 829 l0
836 -42 31 c-120 87 -275 160 -425 200 -114 31 -356 36 -473 10z m275 -250
c-52 -9 -78 -24 -101 -58 -26 -39 -26 -144 0 -198 11 -23 83 -102 167 -185
113 -111 154 -159 177 -205 37 -74 57 -169 48 -229 -10 -67 -63 -163 -124
-226 -29 -30 -58 -63 -63 -72 -18 -34 -97 -70 -162 -75 -50 -4 -73 -1 -114 17
-28 12 -59 31 -69 41 -17 19 -16 19 27 0 52 -24 129 -27 169 -6 18 10 34 30
46 61 15 40 16 53 5 93 -20 76 -55 125 -201 276 -113 118 -145 158 -176 220
-33 68 -38 85 -38 153 0 69 3 84 34 141 19 36 53 79 78 100 24 20 65 56 90 80
61 59 113 81 187 80 55 -1 57 -2 20 -8z m-287 -868 c20 -16 60 -66 87 -111 61
-99 100 -140 140 -150 l30 -8 -25 -14 c-33 -18 -109 -16 -146 3 -48 25 -90 77
-138 173 -25 51 -56 101 -70 112 -33 26 -22 35 37 29 34 -3 59 -13 85 -34z"/>
<path d="M1711 3186 c-38 -81 -25 -183 36 -265 14 -20 101 -110 193 -201 203
-200 223 -234 218 -361 -2 -67 -1 -77 10 -62 18 25 42 110 42 149 0 90 -48
162 -250 369 -182 188 -211 234 -220 345 l-6 75 -23 -49z"/>
<path d="M2220 1660 c-47 -10 -143 -32 -215 -49 -187 -44 -344 -57 -499 -42
-124 12 -243 38 -297 66 -40 21 -45 18 -12 -8 118 -98 353 -157 568 -143 123
9 213 26 430 81 190 49 290 65 403 65 89 1 82 10 -25 34 -95 21 -245 20 -353
-4z"/>
<path d="M2324 1540 c-33 -5 -128 -24 -210 -44 -239 -57 -315 -67 -479 -67
-160 0 -291 18 -373 50 -26 10 -56 22 -67 26 -11 5 -3 -6 19 -23 123 -100 362
-152 602 -131 78 7 188 28 356 70 219 54 257 61 383 66 l140 7 -57 17 c-58 18
-192 40 -231 38 -12 -1 -49 -5 -83 -9z"/>
<path d="M389 1091 c-18 -14 -24 -29 -24 -61 0 -38 6 -47 58 -96 45 -42 57
-60 57 -84 0 -60 -91 -65 -106 -5 -8 32 -24 23 -24 -14 0 -39 17 -51 71 -51
67 0 109 36 109 93 0 38 -5 47 -61 99 -63 59 -73 89 -38 111 24 15 67 0 75
-26 7 -21 8 -20 14 8 4 17 5 33 3 38 -2 4 -28 7 -57 7 -38 0 -61 -6 -77 -19z"/>
<path d="M625 958 c-41 -104 -65 -153 -77 -156 -36 -9 -17 -22 32 -22 46 0 67
13 38 22 -10 4 -9 14 0 46 l13 42 53 0 53 0 13 -42 c8 -24 14 -47 14 -53 1 -5
25 -11 54 -13 36 -2 52 0 47 7 -3 6 -12 11 -19 11 -14 0 -33 40 -104 214 -21
49 -41 91 -47 93 -5 1 -37 -65 -70 -149z m89 -15 c7 -21 4 -23 -28 -23 -41 0
-42 4 -19 62 l17 42 12 -29 c6 -17 15 -40 18 -52z"/>
<path d="M945 1096 c-123 -53 -125 -236 -3 -295 51 -24 169 -30 185 -8 16 19
25 67 13 67 -5 0 -10 -4 -10 -9 0 -24 -34 -41 -80 -41 -41 0 -55 5 -85 31 -74
66 -66 205 15 239 58 24 148 -5 151 -49 1 -9 5 0 10 19 6 28 5 38 -8 48 -22
16 -149 15 -188 -2z"/>
<path d="M1213 1097 c15 -12 17 -33 17 -156 0 -87 -4 -141 -10 -141 -5 0 -10
-4 -10 -10 0 -5 25 -10 55 -10 30 0 55 5 55 10 0 6 -7 10 -15 10 -12 0 -15 13
-15 60 0 53 2 60 20 60 11 0 31 -17 48 -42 52 -76 76 -91 142 -96 38 -3 60 -1
60 6 0 6 -5 12 -12 14 -9 3 -8 15 4 44 16 38 16 39 69 39 l52 0 17 -50 c17
-50 17 -50 63 -53 28 -2 47 1 47 7 0 6 -7 11 -15 11 -18 0 -27 17 -91 175 -28
71 -56 131 -62 133 -5 1 -36 -63 -68 -144 -32 -80 -65 -149 -73 -152 -14 -5
-26 7 -87 85 l-25 32 25 38 c32 47 33 74 2 110 -23 26 -29 28 -118 31 -81 2
-91 1 -75 -11z m141 -33 c19 -18 22 -94 4 -112 -7 -7 -25 -12 -40 -12 -28 0
-28 0 -28 70 0 67 1 70 24 70 14 0 32 -7 40 -16z m288 -99 l17 -45 -39 0 -39
0 16 45 c8 25 18 45 22 45 4 0 14 -20 23 -45z"/>
<path d="M1860 963 c-14 -91 -28 -152 -36 -159 -23 -19 -16 -24 31 -24 47 0
54 5 32 24 -10 9 -11 28 -2 96 l11 85 49 -97 c27 -54 53 -98 57 -98 5 0 29 43
55 95 26 52 50 95 54 95 6 0 23 -124 24 -170 0 -17 25 -27 68 -29 30 -1 37 14
9 21 -16 4 -21 26 -36 134 -20 149 -26 174 -35 174 -4 0 -34 -54 -66 -120
l-58 -121 -58 121 c-32 66 -62 120 -67 120 -5 0 -20 -66 -32 -147z"/>
<path d="M2288 1092 c23 -18 24 -22 20 -152 -2 -95 -7 -135 -15 -138 -7 -2
-13 -8 -13 -13 0 -6 40 -9 98 -7 l97 3 3 35 c3 35 3 35 -13 13 -12 -17 -26
-23 -54 -23 -45 0 -51 9 -51 81 l0 49 40 0 c27 0 42 -6 49 -17 9 -15 10 -12
11 17 l0 35 -50 -3 -50 -4 0 56 0 56 40 0 c27 0 43 -5 46 -15 10 -25 24 -17
24 15 l0 30 -102 0 c-101 0 -103 -1 -80 -18z"/>
<path d="M2577 1103 c-4 -3 -7 -73 -7 -155 0 -125 -2 -148 -15 -148 -8 0 -15
-4 -15 -10 0 -5 23 -10 50 -10 48 0 66 12 35 24 -12 4 -15 26 -15 105 l0 99
112 -114 c61 -63 114 -114 118 -114 4 0 10 69 13 153 6 126 10 154 24 165 14
10 7 12 -43 11 -57 0 -58 -1 -36 -16 20 -14 22 -23 22 -117 l0 -101 -116 118
c-64 64 -117 117 -118 117 -2 0 -6 -3 -9 -7z"/>
<path d="M2926 1094 c-3 -9 -6 -23 -6 -31 0 -14 2 -14 18 0 11 10 36 17 60 17
l42 0 0 -135 c0 -111 -3 -137 -15 -141 -33 -13 -12 -24 45 -24 33 0 60 4 60
10 0 6 -7 10 -15 10 -13 0 -15 22 -15 140 l0 140 40 0 c27 0 43 -5 46 -15 10
-25 24 -17 24 15 l0 30 -139 0 c-117 0 -140 -2 -145 -16z"/>
<path d="M3335 1096 c-42 -18 -83 -69 -91 -112 -20 -108 43 -193 150 -202 105
-9 181 53 192 155 7 62 -25 128 -76 155 -41 21 -131 24 -175 4z m142 -40 c35
-32 37 -38 41 -103 3 -50 0 -79 -11 -100 -49 -94 -185 -44 -203 73 -20 134 84
212 173 130z"/>
<path d="M1230 663 c-35 -13 -60 -47 -60 -81 0 -29 10 -45 60 -95 61 -62 73
-93 46 -116 -8 -7 -30 -11 -48 -9 -25 2 -36 10 -48 33 l-15 30 -3 -35 c-4 -39
16 -60 58 -60 78 0 128 50 115 116 -4 24 -21 47 -60 81 -30 25 -57 55 -61 65
-16 50 61 66 95 21 l20 -28 1 36 c0 30 -4 38 -22 43 -27 7 -57 7 -78 -1z"/>
<path d="M1924 635 c-88 -224 -110 -270 -134 -282 -23 -12 -20 -13 35 -12 33
0 54 3 48 6 -17 6 -16 38 2 73 14 26 21 30 60 30 42 0 46 -2 60 -36 8 -20 15
-45 15 -55 0 -16 8 -19 58 -18 43 0 52 2 35 9 -26 11 -44 45 -103 195 -24 61
-47 114 -52 120 -5 5 -14 -7 -24 -30z m40 -142 c7 -21 4 -23 -29 -23 -34 0
-37 2 -31 25 3 13 11 37 17 52 l11 28 13 -30 c7 -16 16 -40 19 -52z"/>
<path d="M1446 644 c-3 -9 -6 -23 -6 -32 1 -16 2 -15 14 1 9 12 27 17 60 17
l46 0 0 -135 c0 -117 -2 -135 -17 -144 -13 -8 0 -10 52 -9 39 0 60 3 48 5 -23
4 -23 7 -23 144 l0 139 37 0 c20 0 45 -7 55 -17 17 -15 18 -14 18 15 l0 32
-139 0 c-117 0 -140 -2 -145 -16z"/>
<path d="M2156 638 c-10 -37 -7 -42 12 -25 11 10 36 17 60 17 l42 0 0 -135 c0
-117 -2 -135 -17 -144 -14 -8 0 -10 52 -10 52 0 64 3 48 9 -22 9 -23 14 -23
145 l0 135 39 0 c23 0 46 -7 55 -16 15 -14 16 -13 16 15 l0 31 -139 0 c-135 0
-139 -1 -145 -22z"/>
<path d="M2578 650 c21 -9 22 -13 22 -154 0 -129 -2 -145 -17 -149 -10 -3 28
-5 83 -6 106 -1 114 2 114 47 0 13 -4 11 -20 -6 -23 -24 -69 -29 -88 -10 -7 7
-12 38 -12 70 l0 58 35 0 c22 0 38 -6 41 -15 10 -25 24 -17 24 14 0 28 -1 28
-50 23 l-50 -5 0 57 0 56 40 0 c28 0 43 -5 47 -16 5 -13 7 -13 14 -2 5 7 9 21
9 31 0 15 -11 17 -107 16 -75 0 -101 -3 -85 -9z"/>
</g>
</svg>
